<svg width="38" height="38" viewBox="0 0 38 38" fill="none" xmlns="http://www.w3.org/2000/svg">
<g id="profile">
<g id="Clip path group">
<mask id="mask0_76_503" style="mask-type:luminance" maskUnits="userSpaceOnUse" x="0" y="0" width="34" height="36">
<g id="92c2ba8ad7">
<path id="Vector" d="M0 0H33.6649V35.9632H0V0Z" fill="white"/>
</g>
</mask>
<g mask="url(#mask0_76_503)">
<g id="Group">
<path id="Vector_2" d="M18.9991 35.8692L26.5253 33.9693C30.8227 30.3986 33.5606 25.0187 33.5606 18.9991C33.5606 9.71503 27.052 1.94437 18.3459 0.00683594C8.15543 0.355694 0 8.7266 0 18.9991C0 24.2765 2.1513 29.0476 5.6245 32.4918L18.9991 35.8692Z" fill="#CBE2FF"/>
</g>
</g>
</g>
<g id="Clip path group_2">
<mask id="mask1_76_503" style="mask-type:luminance" maskUnits="userSpaceOnUse" x="16" y="0" width="22" height="35">
<g id="e35adeedc1">
<path id="Vector_3" d="M16.1536 0H38V34.6499H16.1536V0Z" fill="white"/>
</g>
</mask>
<g mask="url(#mask1_76_503)">
<g id="Group_2">
<path id="Vector_4" d="M33.1673 18.9991C33.1673 25.2256 30.1695 30.756 25.5386 34.2207L32.367 32.5003C35.847 29.0476 38 24.2765 38 18.9991C38 8.50429 29.494 0 18.9992 0C18.1835 0 17.3746 0.0513028 16.588 0.147068C25.9387 1.33558 33.1673 9.32172 33.1673 18.9991Z" fill="#BED8FB"/>
</g>
</g>
</g>
<path id="Vector_5" d="M23.719 7.19779C23.719 6.22646 22.9323 5.43982 21.961 5.43982H15.9039C13.6705 5.43982 11.8595 7.25081 11.8595 9.48419V13.9749H26.1251V9.55088C26.1251 8.57955 25.3384 7.79291 24.3654 7.79291H24.3056C23.9875 7.78436 23.719 7.52442 23.719 7.19779Z" fill="#365E7D"/>
<path id="Vector_6" d="M24.3722 7.78436H24.3141C23.9875 7.78436 23.719 7.51759 23.719 7.19096C23.719 6.21963 22.9323 5.43298 21.961 5.43298H21.3009V13.9681H26.1319V9.54405C26.1319 8.571 25.3453 7.78436 24.3722 7.78436Z" fill="#2B4D66"/>
<g id="Clip path group_3">
<mask id="mask2_76_503" style="mask-type:luminance" maskUnits="userSpaceOnUse" x="4" y="24" width="28" height="14">
<g id="fe4c2cc2cd">
<path id="Vector_7" d="M4.77118 24.5809H31.9138V38H4.77118V24.5809Z" fill="white"/>
</g>
</mask>
<g mask="url(#mask2_76_503)">
<g id="Group_3">
<path id="Vector_8" d="M31.5427 27.6385C31.0742 27.1785 30.503 26.8211 29.8497 26.621L24.663 24.981L18.9992 24.7809L13.3285 24.981L8.1418 26.621C6.38896 27.1699 5.19531 28.7962 5.19531 30.6363V32.054C8.51973 35.5648 13.1729 37.8136 18.3459 37.9846C24.1431 36.7003 28.9673 32.8269 31.5427 27.6385Z" fill="#4A80AA"/>
</g>
</g>
</g>
<g id="Clip path group_4">
<mask id="mask3_76_503" style="mask-type:luminance" maskUnits="userSpaceOnUse" x="16" y="27" width="18" height="11">
<g id="5d04e5e92e">
<path id="Vector_9" d="M16.5913 27.2076H33.2271V38H16.5913V27.2076Z" fill="white"/>
</g>
</mask>
<g mask="url(#mask3_76_503)">
<g id="Group_4">
<path id="Vector_10" d="M32.8047 32.054V30.6363C32.8047 29.3384 32.2096 28.143 31.2383 27.3564C28.485 32.9672 23.0435 37.027 16.5947 37.8427C17.3745 37.9401 18.168 37.9915 18.97 38C19.7413 38 20.5057 37.9538 21.2564 37.8649C25.7831 37.3314 29.8274 35.2006 32.8047 32.054Z" fill="#407093"/>
</g>
</g>
</g>
<g id="Clip path group_5">
<mask id="mask4_76_503" style="mask-type:luminance" maskUnits="userSpaceOnUse" x="14" y="23" width="10" height="15">
<g id="266e262227">
<path id="Vector_11" d="M14.8402 23.2675H23.1581V38H14.8402V23.2675Z" fill="white"/>
</g>
</mask>
<g mask="url(#mask4_76_503)">
<g id="Group_5">
<path id="Vector_12" d="M19.4301 37.7178C20.581 35.4314 23.572 28.9519 22.7169 24.9075L18.9992 23.459L15.2814 24.9075C14.3973 29.0784 17.6123 35.8401 18.6725 37.9179C18.9256 37.8512 19.177 37.7845 19.4301 37.7178Z" fill="#E4F6FF"/>
</g>
</g>
</g>
<g id="Clip path group_6">
<mask id="mask5_76_503" style="mask-type:luminance" maskUnits="userSpaceOnUse" x="16" y="29" width="6" height="9">
<g id="7dbd05fcdb">
<path id="Vector_13" d="M16.5913 29.8343H21.4069V38H16.5913V29.8343Z" fill="white"/>
</g>
</mask>
<g mask="url(#mask5_76_503)">
<g id="Group_6">
<path id="Vector_14" d="M21.3898 35.9068L19.8832 29.9762H18.1167L16.6101 35.8914L18.4724 37.9623C18.9478 37.8512 19.4078 37.7315 19.8678 37.5827L21.3898 35.9068Z" fill="#E28086"/>
</g>
</g>
</g>
<g id="Clip path group_7">
<mask id="mask6_76_503" style="mask-type:luminance" maskUnits="userSpaceOnUse" x="17" y="36" width="4" height="2">
<g id="caf13ea96a">
<path id="Vector_15" d="M17.9047 36.8388H20.5314V38H17.9047V36.8388Z" fill="white"/>
</g>
</mask>
<g mask="url(#mask6_76_503)">
<g id="Group_7">
<path id="Vector_16" d="M18.5015 37.9914C18.6588 38 18.8144 38 18.9615 38C19.141 38 19.3189 38 19.4967 37.9914L20.4544 36.9312C19.6968 37.1979 18.9256 37.4134 18.1304 37.5827L18.5015 37.9914Z" fill="#DD636E"/>
</g>
</g>
</g>
<path id="Vector_17" d="M22.1765 24.3586V21.0102H15.8235V24.3586C15.8235 26.1097 18.9992 28.025 18.9992 28.025C18.9992 28.025 22.1765 26.1097 22.1765 24.3586Z" fill="#FFDDCE"/>
<path id="Vector_18" d="M26.1319 13.3815H24.9143C24.2389 13.3815 23.6899 12.8325 23.6899 12.157V11.4884C23.6899 10.606 22.8297 9.98863 21.9986 10.264C20.0525 10.9087 17.9457 10.9087 16.0013 10.264C15.1617 9.98863 14.3083 10.6128 14.3083 11.4884V12.157C14.3083 12.8325 13.7594 13.3815 13.0839 13.3815H11.8663V15.3771C11.8663 15.8902 12.2819 16.3057 12.7949 16.3057C12.9574 16.3057 13.0839 16.4305 13.0993 16.5947C13.2926 19.69 15.8594 22.1388 19.006 22.1388C22.1543 22.1388 24.7143 19.69 24.9143 16.5947C24.9212 16.4305 25.0563 16.3057 25.2187 16.3057C25.7318 16.3057 26.1473 15.8902 26.1473 15.3771L26.1319 13.3815Z" fill="#FFDDCE"/>
<path id="Vector_19" d="M24.9143 13.3815C24.2389 13.3815 23.6899 12.8325 23.6899 12.157V11.4884C23.6899 10.606 22.8297 9.98863 21.9986 10.264C21.7678 10.3375 21.5369 10.4042 21.3009 10.464V17.0701C21.2701 19.2146 20.0902 21.0854 18.3544 22.1012C18.5682 22.1234 18.7837 22.1388 18.9991 22.1388C22.1389 22.1388 24.7074 19.69 24.9075 16.5947C24.9143 16.4305 25.0477 16.3057 25.2119 16.3057C25.7232 16.3057 26.1388 15.8902 26.1388 15.3771V13.3815H24.9143Z" fill="#FFCBBE"/>
<path id="Vector_20" d="M15.8235 23.459L13.3285 25.4855L15.9415 28.7142C16.2613 29.0254 16.7572 29.0408 17.0992 28.7586L19.0659 27.1186L15.8235 23.459Z" fill="#F4FBFF"/>
<path id="Vector_21" d="M22.1765 23.459L19.0659 27.1186L20.9145 28.6988C21.2565 28.9895 21.7524 28.9741 22.079 28.6629L24.6698 25.4855L22.1765 23.459Z" fill="#F4FBFF"/>
<g id="Clip path group_8">
<mask id="mask7_76_503" style="mask-type:luminance" maskUnits="userSpaceOnUse" x="11" y="23" width="8" height="15">
<g id="58fca5a0e5">
<path id="Vector_22" d="M11.3379 23.2675H18.7802V38H11.3379V23.2675Z" fill="white"/>
</g>
</mask>
<g mask="url(#mask7_76_503)">
<g id="Group_8">
<path id="Vector_23" d="M15.8235 23.459L12.1639 25.2564C11.8817 25.3897 11.7705 25.73 11.9193 26.0054L12.6307 27.394C12.8171 27.7497 12.7504 28.1943 12.4614 28.4765C12.3126 28.6252 12.157 28.7809 12.0151 28.9228C11.7705 29.1673 11.6816 29.5384 11.7859 29.8651C12.6529 32.5003 16.8102 36.5293 18.3835 37.9914C18.4878 37.9914 18.5989 38 18.7033 38C17.5677 35.7803 13.5217 27.3341 15.8235 23.459Z" fill="#365E7D"/>
</g>
</g>
</g>
<g id="Clip path group_9">
<mask id="mask8_76_503" style="mask-type:luminance" maskUnits="userSpaceOnUse" x="19" y="23" width="8" height="15">
<g id="8632e376ff">
<path id="Vector_24" d="M19.218 23.2675H26.6603V38H19.218V23.2675Z" fill="white"/>
</g>
</mask>
<g mask="url(#mask8_76_503)">
<g id="Group_9">
<path id="Vector_25" d="M25.53 28.4765C25.241 28.1875 25.1743 27.7497 25.3607 27.394L26.0721 26.0054C26.214 25.73 26.1029 25.3897 25.8275 25.2564L22.1679 23.459C24.4697 27.341 20.4237 35.7734 19.2813 38C19.3856 38 19.4968 37.9914 19.6011 37.9914C21.1812 36.5293 25.3299 32.5071 26.1986 29.8719C26.3098 29.5384 26.2209 29.1742 25.9678 28.9296C25.8429 28.7809 25.6788 28.6252 25.53 28.4765Z" fill="#365E7D"/>
</g>
</g>
</g>
<path id="Vector_26" d="M19.0658 27.1118L17.1283 28.7296L18.1167 29.9762H19.8833L20.87 28.6543L19.0658 27.1118Z" fill="#DD636E"/>
</g>
</svg>
